<svg t="1620985659108" class="icon" viewBox="0 0 1024 1024" version="1.1" xmlns="http://www.w3.org/2000/svg" p-id="20241" width="128" height="128"><path d="M0 0h1024v1024H0z" opacity=".01" p-id="20242"></path><path d="M581.856 833.92C688.528 747.632 896 559.232 896 396.448 896 177.408 727.76 0 520 0 312.32 0 144 177.6 144 396.448c0 162.688 207.568 351.28 314.144 437.376-118.688 9.376-230.576 44.352-230.576 85.872 0 48.8 154.128 88.304 292.64 88.304 138.4 0 292.72-39.616 292.72-88.304-0.096-41.728-112.176-76.512-231.072-85.776zM394.704 355.728c0-73.184 56.144-132.464 125.296-132.464 69.36 0 125.296 59.376 125.296 132.464 0 73.072-56.048 132.352-125.296 132.352s-125.296-59.28-125.296-132.352z m125.504 563.968c-92.384 0-208.96-19.76-208.96-44.256 0-19.04 71.648-35.36 147.2-41.52 36.928 29.728 61.648 47.28 61.648 47.28s24.816-17.552 61.648-47.28c75.568 6.144 147.424 22.48 147.424 41.536 0.096 24.384-116.592 44.24-208.96 44.24z" p-id="20243"></path></svg>