<svg t="1631587169804" class="icon" viewBox="0 0 1024 1024" version="1.1" xmlns="http://www.w3.org/2000/svg" p-id="3483" width="200" height="200"><path d="M448.193437 990.422633l0.031887 1.690029a31.887338 31.887338 0 0 1-31.887338 31.887338h-63.774676a63.774676 63.774676 0 0 1-63.774676-63.774676V892.847379a31.887338 31.887338 0 0 0-31.887338-31.887338H225.013958a63.774676 63.774676 0 0 1-63.774677-63.774677v-75.955639l-70.343467-35.171734a63.774676 63.774676 0 0 1-16.581416-102.135143L161.239281 496.997964l0.095662-55.260757C184.963461 152.200178 313.915856 0.607773 543.791676 0.001913c230.067144-0.605859 359.019539 151.783729 382.648057 443.871746a31.887338 31.887338 0 1 1-63.583352 5.101974C841.715075 187.27625 736.805733 63.298279 543.983 63.776589 350.968943 64.286787 246.059601 187.62701 225.013958 444.320082v52.677882A63.774676 63.774676 0 0 1 206.327977 542.08666l-86.924883 86.924884 70.343468 35.171733A63.774676 63.774676 0 0 1 225.013958 721.229725V797.185364h31.887338a95.662014 95.662014 0 0 1 95.662014 95.662015v67.377945h38.488017l150.508235-377.801181a64.635634 64.635634 0 0 1 118.939771-2.04079l171.171231 389.727046a31.664127 31.664127 0 0 1-16.708965 41.8043 32.333761 32.333761 0 0 1-42.346385-16.485754L713.84685 861.597787a31.887338 31.887338 0 0 1-7.334088 0.860958h-207.363359L448.225324 990.422633z m238.102753-191.54724l-84.820319-193.173494-76.976034 193.173494h161.796353zM927.141254 573.973998v413.259901a31.887338 31.887338 0 0 1-31.887338 31.887338H894.648057a31.887338 31.887338 0 0 1-31.887338-31.887338V573.973998a31.887338 31.887338 0 0 1 31.887338-31.887338h0.605859a31.887338 31.887338 0 0 1 31.887338 31.887338z" p-id="3484"></path></svg>