<svg t="1633918336477" class="icon" viewBox="0 0 1024 1024" version="1.1" xmlns="http://www.w3.org/2000/svg" p-id="3001" width="200" height="200"><path d="M586.306667 302.893333C557.046667 263.533333 554.666667 236.286667 554.666667 207.24 554.666667 140 609.333333 85.333333 676.573333 85.333333A121.866667 121.866667 0 0 1 768 126.586667 121.866667 121.866667 0 0 1 859.426667 85.333333C926.666667 85.333333 981.333333 140 981.333333 207.24c0 29.046667-2.38 56.293333-31.64 95.653333-26.786667 36-75.426667 82.78-167.88 161.333334a21.333333 21.333333 0 0 1-27.626666 0c-92.453333-78.553333-141.093333-125.306667-167.88-161.333334zM1002.666667 597.333333H576a21.333333 21.333333 0 0 0-20.513333 15.473334l-63.446667 222.06L340.666667 229.493333A21.333333 21.333333 0 0 0 320 213.333333h-0.28a21.333333 21.333333 0 0 0-20.546667 16.706667L217.553333 597.333333H21.333333a21.333333 21.333333 0 0 0 0 42.666667h213.333334a21.333333 21.333333 0 0 0 20.826666-16.706667l65.726667-295.78L470 922.506667a21.333333 21.333333 0 0 0 20.313333 16.16h0.353334a21.333333 21.333333 0 0 0 20.513333-15.473334L592.093333 640H1002.666667a21.333333 21.333333 0 0 0 0-42.666667z" p-id="3002"></path></svg>