<?xml version="1.0" standalone="no"?><!DOCTYPE svg PUBLIC "-//W3C//DTD SVG 1.1//EN" "http://www.w3.org/Graphics/SVG/1.1/DTD/svg11.dtd"><svg class="icon" width="128px" height="128.00px" viewBox="0 0 1024 1024" version="1.1" xmlns="http://www.w3.org/2000/svg"><path d="M44.288 40.576h68.224c118.912 0.768 201.216 9.6 249.856 27.84 67.392 25.28 132.736 67.712 195.84 126.848l18.944 18.24 17.472 18.112 17.088 18.56 18.368 20.992 21.12 25.088 213.632-9.088 139.2 300.8-149.632 32.192c37.44 51.776 66.112 134.08 89.088 248.96l4.48 23.424 11.84 63.36-63.744-9.728-23.744-3.84c-108.8-18.112-188.736-42.816-240.896-76.16l-10.752-7.296-16.384 84.48-11.264 57.152-301.76-139.904 9.088-213.632-33.536-28.544c-19.072-16.64-32.896-29.44-48.896-45.12-72.32-72.64-121.6-143.424-148.032-213.44C55.68 322.304 47.68 260.992 45.056 173.824l-0.576-20.544-0.448-43.904L44.288 40.576h68.224H44.288z m91.52 91.84l0.768 37.632c2.368 77.76 8.96 130.88 19.008 157.44 19.584 52.032 56.576 107.072 111.488 164.992l15.36 15.872 19.712 18.816 13.888 12.608 25.28 21.888 52.48 43.968-8.448 197.632 140.416 65.152 21.952-111.488c29.056-88.128 89.6-156.416 168-193.728l14.912-6.592 18.432-7.04 123.84-26.88-65.472-141.44-197.76 8.384-25.408-30.72a1692.928 1692.928 0 0 0-42.88-49.984l-14.464-15.68-14.72-15.168C452.288 218.432 391.36 177.088 330.24 154.24c-30.976-11.648-90.24-19.072-175.68-21.376l-18.688-0.384z m635.264 529.92l-16.384-16.256a228.928 228.928 0 0 0-103.168 98.368l-6.464 13.12 16.448 16.384 5.76 5.312c25.216 21.184 72.512 40.704 141.12 56.96l17.536 4.096 18.56 3.84-4.416-18.048c-19.008-76.48-40.768-129.28-63.68-157.632l-5.312-6.08-16.384-16.32 16.384 16.32zM288.64 240.448c13.312 0 24.832 4.672 34.304 13.952a45.056 45.056 0 0 1 14.272 33.408 44.736 44.736 0 0 1-14.272 33.472 47.36 47.36 0 0 1-34.304 13.952 46.976 46.976 0 0 1-34.24-13.952 45.056 45.056 0 0 1-14.336-33.472 44.736 44.736 0 0 1 14.336-33.408 47.36 47.36 0 0 1 34.24-13.952z"  /></svg>