<svg t="1621322867763" class="icon" viewBox="0 0 1316 1024" version="1.1" xmlns="http://www.w3.org/2000/svg" p-id="2410" width="200" height="200"><path d="M146.285714 0h1024a146.285714 146.285714 0 0 1 146.285715 146.285714v731.428572a146.285714 146.285714 0 0 1-146.285715 146.285714H146.285714a146.285714 146.285714 0 0 1-146.285714-146.285714V146.285714a146.285714 146.285714 0 0 1 146.285714-146.285714z m0 73.142857a73.142857 73.142857 0 0 0-73.142857 73.142857v731.428572a73.142857 73.142857 0 0 0 73.142857 73.142857h1024a73.142857 73.142857 0 0 0 73.142857-73.142857V146.285714a73.142857 73.142857 0 0 0-73.142857-73.142857H146.285714z m512 396.507429l420.425143-245.248a36.571429 36.571429 0 1 1 36.864 63.195428l-438.857143 256a36.571429 36.571429 0 0 1-36.864 0l-438.857143-256a36.571429 36.571429 0 1 1 36.864-63.195428L658.285714 469.650286z" p-id="2411"></path></svg>