<svg t="1626338791582" class="icon" viewBox="0 0 1128 1024" version="1.1" xmlns="http://www.w3.org/2000/svg" p-id="2184" width="200" height="200"><path d="M969.058134 0.006307h-901.006329A67.124972 67.124972 0 0 0 0.025827 68.933291v826.222804a67.124972 67.124972 0 0 0 68.025978 68.926984h901.006329a67.124972 67.124972 0 0 0 68.025978-68.926984V68.933291A67.124972 67.124972 0 0 0 969.058134 0.006307z m-14.866604 83.343085v549.613861H83.368913V82.898889zM83.368913 881.190497V716.306339h869.92161v164.884158z m0 0" p-id="2185"></path><path d="M145.087846 414.018715h126.140886a52.258367 52.258367 0 0 0 45.050317-29.282705l62.61994-127.492396 147.314534 277.509949a51.807864 51.807864 0 0 0 45.050317 27.480693 51.807864 51.807864 0 0 0 45.050316-30.183712l82.442079-173.894221 19.82214 35.139247a52.258367 52.258367 0 0 0 45.050316 26.579686h135.150949a41.671543 41.671543 0 1 0 0-83.343085H783.901333l-40.094781-72.080506a51.807864 51.807864 0 0 0-92.353149 3.604025l-81.541073 173.894221-146.413528-274.80693a51.807864 51.807864 0 0 0-92.803652 0L251.857096 331.126133H145.087846a41.671543 41.671543 0 1 0 0 83.343085z m668.096193 345.535927h-117.581326a41.671543 41.671543 0 1 0 0 83.343086h117.581326a41.671543 41.671543 0 1 0 0-83.343086z m-299.134101 0H161.30596a41.671543 41.671543 0 0 0 0 83.343086h352.743978a41.671543 41.671543 0 0 0 0-83.343086z m0 0" p-id="2186"></path></svg>