<svg t="1630651015828" class="icon" viewBox="0 0 1024 1024" version="1.1" xmlns="http://www.w3.org/2000/svg" p-id="2909" width="200" height="200"><path d="M932.57 0H91.43C40.93 0 0 40.93 0 91.43v623.14C0 765.07 40.93 806 91.43 806h841.14c50.49 0 91.43-40.93 91.43-91.43V91.43C1024 40.93 983.07 0 932.57 0zM956 714.57c0 12.92-10.51 23.43-23.43 23.43H91.43C78.51 738 68 727.49 68 714.57V91.43C68 78.51 78.51 68 91.43 68h841.14C945.49 68 956 78.51 956 91.43v623.14z" p-id="2910"></path><path d="M234.5 342.9c-18.78 0-34 13.5-34 30.16v284.78c0 16.66 15.22 30.16 34 30.16s34-13.5 34-30.16V373.06c0-16.66-15.22-30.16-34-30.16zM419.74 177h-0.03c-18.76 0-33.98 13.49-34 30.14l-0.42 450.67c-0.02 16.66 15.19 30.17 33.97 30.19h0.03c18.76 0 33.98-13.49 34-30.14l0.42-450.67c0.02-16.66-15.19-30.18-33.97-30.19zM604.5 342.9c-18.78 0-34 13.5-34 30.16v284.78c0 16.66 15.22 30.16 34 30.16s34-13.5 34-30.16V373.06c0-16.66-15.22-30.16-34-30.16zM789.5 279.91c-18.78 0-34 13.5-34 30.16v347.76c0 16.66 15.22 30.16 34 30.16s34-13.5 34-30.16V310.07c0-16.66-15.22-30.16-34-30.16zM762 956H262c-18.78 0-34 15.22-34 34s15.22 34 34 34h500c18.78 0 34-15.22 34-34s-15.22-34-34-34z" p-id="2911"></path></svg>