<?xml version="1.0" standalone="no"?><!DOCTYPE svg PUBLIC "-//W3C//DTD SVG 1.1//EN" "http://www.w3.org/Graphics/SVG/1.1/DTD/svg11.dtd"><svg class="icon" width="128px" height="128.00px" viewBox="0 0 1024 1024" version="1.1" xmlns="http://www.w3.org/2000/svg"><path d="M471 921.6H225.3c-22.6 0-41-18.4-41-41V757.8c0-112.9 91.9-204.8 204.8-204.8h245.8c43 0 84.3 13.4 119.4 38.7 18.4 13.3 43.9 9.1 57.2-9.2 13.3-18.3 9.1-43.9-9.2-57.2-49.1-35.5-107-54.2-167.4-54.2H389.1C231 471 102.4 599.7 102.4 757.8v122.9c0 67.8 55.1 122.9 122.9 122.9H471c22.6 0 41-18.3 41-41s-18.3-41-41-41zM512 430.1c113.1 0 204.8-91.7 204.8-204.8S625.1 20.5 512 20.5s-204.8 91.7-204.8 204.8S398.9 430.1 512 430.1z m0-327.7c67.8 0 122.9 55.1 122.9 122.9S579.8 348.2 512 348.2 389.1 293 389.1 225.3 444.2 102.4 512 102.4zM880.6 798.7h-81.9v-81.9c0-22.5-18.4-41-41-41-22.5 0-41 18.4-41 41v81.9h-81.9c-22.5 0-41 18.4-41 41 0 22.5 18.4 41 41 41h81.9v81.9c0 22.5 18.4 41 41 41 22.5 0 41-18.4 41-41v-81.9h81.9c22.5 0 41-18.4 41-41 0-22.5-18.4-41-41-41z" /></svg>