<?xml version="1.0" standalone="no"?><!DOCTYPE svg PUBLIC "-//W3C//DTD SVG 1.1//EN" "http://www.w3.org/Graphics/SVG/1.1/DTD/svg11.dtd"><svg class="icon" width="128px" height="128.00px" viewBox="0 0 1024 1024" version="1.1" xmlns="http://www.w3.org/2000/svg"><path d="M940.426465 574.49012l0.093088 0.093088a46.217956 46.217956 0 0 1 0.139631 65.393986l-0.139631 0.139631-372.117378 370.348714a46.543762 46.543762 0 0 1-65.626704 0l-0.093088-0.093087a46.217956 46.217956 0 0 1 0-65.533617l372.070834-370.348715a46.543762 46.543762 0 0 1 65.673248 0zM768.214546 0.000465c77.123014 0 139.631286 62.22901 139.631286 139.026218v324.363477h-93.134068l0.046544-324.410021c0-25.133632-20.153449-45.612887-45.240537-46.2645H209.456682a46.450675 46.450675 0 0 0-46.543762 45.007818v742.745355c0 25.133632 20.106905 45.612887 45.240537 46.357587l187.524817-0.046544v92.715174H209.503226C132.380213 1019.495029 69.825396 957.266019 69.825396 880.468812V139.026683A139.352024 139.352024 0 0 1 209.456682 0.000465h558.757864z m-232.579179 556.104869a46.357587 46.357587 0 0 1 0 92.668631H302.404575a46.357587 46.357587 0 0 1 0-92.668631h233.184248z m139.631286-278.052434a46.357587 46.357587 0 0 1 0 92.66863H302.451119a46.357587 46.357587 0 0 1 0-92.66863h372.908622z" /></svg>