<?xml version="1.0" standalone="no"?><!DOCTYPE svg PUBLIC "-//W3C//DTD SVG 1.1//EN" "http://www.w3.org/Graphics/SVG/1.1/DTD/svg11.dtd"><svg class="icon" width="128px" height="128.00px" viewBox="0 0 1024 1024" version="1.1" xmlns="http://www.w3.org/2000/svg"><path d="M714.31 700.51c54.424 0 100.188 37.082 113.403 87.358l100.401 0.002c16.506 0 29.886 13.38 29.886 29.885 0 16.506-13.38 29.886-29.886 29.886l-100.4 0.001C814.497 897.918 768.733 935 714.308 935c-54.425 0-100.189-37.082-113.404-87.358H95.885C79.38 847.641 66 834.26 66 817.754c0-16.505 13.38-29.885 29.886-29.885l505.02-0.002c13.214-50.276 58.978-87.357 113.403-87.357z m0 59.773c-31.743 0-57.475 25.731-57.475 57.472 0 31.742 25.732 57.473 57.474 57.473 31.742 0 57.475-25.731 57.475-57.473 0-31.74-25.733-57.472-57.475-57.472zM314.288 380.962c59.293 0 108.307 44.013 116.151 101.15l497.674 0.002C944.62 482.114 958 495.494 958 512s-13.38 29.886-29.886 29.886l-504.985 0.001c-17.322 43.12-59.526 73.564-108.84 73.564-49.315 0-91.518-30.445-108.84-73.564l-109.563-0.001C79.38 541.886 66 528.506 66 512s13.38-29.886 29.886-29.886l102.25-0.002c7.845-57.137 56.859-101.15 116.153-101.15z m0 59.772c-31.742 0-57.475 25.731-57.475 57.473 0 31.74 25.733 57.472 57.475 57.472s57.474-25.731 57.474-57.472c0-31.742-25.732-57.473-57.474-57.473zM512 89c54.425 0 100.189 37.082 113.404 87.358h302.71c16.506 0 29.886 13.381 29.886 29.887 0 16.505-13.38 29.885-29.886 29.885l-302.71 0.002c-13.215 50.276-58.979 87.357-113.404 87.357s-100.189-37.081-113.404-87.357l-302.71-0.002C79.38 236.13 66 222.75 66 206.245c0-16.506 13.38-29.886 29.886-29.886l302.71-0.001C411.811 126.082 457.575 89 512 89z m0 59.772c-31.742 0-57.474 25.731-57.474 57.473 0 31.74 25.732 57.472 57.474 57.472 31.742 0 57.474-25.731 57.474-57.472 0-31.742-25.732-57.473-57.474-57.473z"  /></svg>