<?xml version="1.0" standalone="no"?><!DOCTYPE svg PUBLIC "-//W3C//DTD SVG 1.1//EN" "http://www.w3.org/Graphics/SVG/1.1/DTD/svg11.dtd"><svg t="1619747924821" class="icon" viewBox="0 0 1024 1024" version="1.1" xmlns="http://www.w3.org/2000/svg" p-id="3654" xmlns:xlink="http://www.w3.org/1999/xlink" width="128" height="128"><defs><style type="text/css"></style></defs><path d="M933.26848 428.37504L460.8 844.51328l376.55552 7.11168 71.05024-35.56864 31.96928-71.13216z" fill="#BFCBD9" p-id="3655"></path><path d="M977.92 299.8784A156.61568 156.61568 0 0 0 821.56544 143.36H202.43456A156.61568 156.61568 0 0 0 46.08 299.8784v424.2432A156.61568 156.61568 0 0 0 202.43456 880.64h619.13088a156.16 156.16 0 0 0 125.44-63.16544 29.7472 29.7472 0 0 0 11.08992-17.15712A155.648 155.648 0 0 0 977.92 724.1216V299.8784z m-302.75072 207.83104l231.7056-193.46944v409.8816c0 0.47616-0.06656 0.93184-0.07168 1.408zM202.43456 214.48192h619.13088a85.11488 85.11488 0 0 1 65.43872 30.72 35.2256 35.2256 0 0 0-17.65888 7.77216l-349.57312 291.88608a4.77696 4.77696 0 0 1-6.00576 0.0768l-373.95968-297.8304c-0.91136-0.72704-1.91488-1.2288-2.87232-1.84832a85.11488 85.11488 0 0 1 65.50016-30.77632zM120.20224 746.496a85.09952 85.09952 0 0 1-3.072-22.39488V319.9232l247.296 196.9408z m82.23232 63.0016a84.57216 84.57216 0 0 1-36.57216-8.36096l254.74048-239.55456 48.93184 38.96832a76.02688 76.02688 0 0 0 95.744-1.10592l54.92736-45.86496 253.26592 238.16704a84.736 84.736 0 0 1-51.8912 17.77152H202.43456z" fill="#BFCBD9" p-id="3656"></path></svg>