<svg t="1620368126719" class="icon" viewBox="0 0 1024 1024" version="1.1" xmlns="http://www.w3.org/2000/svg" p-id="14927" width="128" height="128"><path d="M748.8 1024 339.2 1024C262.4 1024 192 953.6 192 870.4L192 153.6C192 70.4 262.4 0 339.2 0l403.2 0C825.6 0 896 70.4 896 153.6l0 716.8C896 953.6 825.6 1024 748.8 1024zM339.2 57.6c-51.2 0-89.6 44.8-89.6 96l0 716.8c0 51.2 38.4 96 89.6 96l403.2 0c51.2 0 89.6-44.8 89.6-96L832 153.6c0-51.2-38.4-96-89.6-96L339.2 57.6z" p-id="14928"></path><path d="M838.4 780.8 249.6 780.8c-19.2 0-32-12.8-32-32 0-19.2 12.8-32 32-32l588.8 0c19.2 0 32 12.8 32 32C864 768 851.2 780.8 838.4 780.8z" p-id="14929"></path><path d="M838.4 179.2 249.6 179.2c-19.2 0-32-12.8-32-32s12.8-32 32-32l588.8 0c19.2 0 32 12.8 32 32S851.2 179.2 838.4 179.2z" p-id="14930"></path><path d="M486.4 870.4a0.9 0.9 0 1 0 115.2 0 0.9 0.9 0 1 0-115.2 0Z" p-id="14931"></path></svg>