<svg t="1620985985537" class="icon" viewBox="0 0 1024 1024" version="1.1" xmlns="http://www.w3.org/2000/svg" p-id="31967" width="128" height="128"><path d="M512 0.324873C229.411086 0.324873 0.324873 229.409787 0.324873 512 0.324873 794.591513 229.411086 1023.675127 512 1023.675127S1023.675127 794.590213 1023.675127 512C1023.675127 229.412386 794.588914 0.324873 512 0.324873zM512 921.340102C285.92731 921.340102 102.659898 738.07269 102.659898 512S285.928609 102.659898 512 102.659898c226.07399 0 409.340102 183.267411 409.340102 409.340102S738.07269 921.340102 512 921.340102z" p-id="31968"></path><path d="M461.139168 365.807107H273.653604l-123.688284-125.044955 96.045482-92.443289L461.137868 365.807107z m289.215025 292.385786l124.380914 125.745381-96.045483 92.443289L562.868629 658.192893H750.352893zM292.71066 438.903553h438.57868v146.192894h-438.57868z" p-id="31969"></path></svg>