<svg t="1620985389353" class="icon" viewBox="0 0 1024 1024" version="1.1" xmlns="http://www.w3.org/2000/svg" p-id="16608" width="128" height="128"><path d="M0.107093 682.666667a130.986667 130.986667 0 0 0 125.013334 136.106666H401.17376v128H259.09376a37.12 37.12 0 0 0 0 74.24h512a37.12 37.12 0 0 0 0-74.24H623.040427v-128h276.053333A130.986667 130.986667 0 0 0 1024.107093 682.666667v-30.72H0.107093zM849.600427 320v-8.106667c0-2.986667 0-5.973333-2.133334-8.533333s0 0 0-2.56l-2.56-7.68v-2.133333a103.253333 103.253333 0 0 0-193.28 0v2.133333a27.306667 27.306667 0 0 0-2.56 7.68 5.973333 5.973333 0 0 0 0 2.56 50.346667 50.346667 0 0 0 0 8.533333v10.666667a46.506667 46.506667 0 0 0 0 7.68v10.24a11.946667 11.946667 0 0 0 0 3.84 25.173333 25.173333 0 0 0 0 5.973333v4.693334a106.666667 106.666667 0 0 0 74.24 78.506666 97.706667 97.706667 0 0 0 27.306667 3.413334 96.853333 96.853333 0 0 0 26.88-3.413334 106.666667 106.666667 0 0 0 74.24-78.506666v-10.666667a11.946667 11.946667 0 0 1 0-3.84v-10.24a46.506667 46.506667 0 0 0 0-7.68z" p-id="16609"></path><path d="M899.09376 0H125.120427A130.56 130.56 0 0 0 0.107093 135.253333v474.026667h1024V135.253333A130.56 130.56 0 0 0 899.09376 0zM338.027093 469.333333H172.907093a25.173333 25.173333 0 0 1-25.173333-24.32v-4.266666a25.6 25.6 0 0 1 25.173333-24.746667h165.12a25.173333 25.173333 0 0 1 25.173334 24.746667v4.266666a25.173333 25.173333 0 0 1-25.173334 24.32z m100.693334-165.12a24.746667 24.746667 0 0 1-25.173334 24.32H172.907093a25.173333 25.173333 0 0 1-25.173333-24.32v-4.266666a25.6 25.6 0 0 1 25.173333-24.746667h240.64a24.746667 24.746667 0 0 1 25.173334 24.746667z m21.76-112.213333H170.77376a27.306667 27.306667 0 0 1-27.733333-26.88 27.306667 27.306667 0 0 1 27.733333-26.026667h290.133333a26.88 26.88 0 1 1 0 53.76z m491.946666 91.733333v91.306667h-50.346666c0 6.4-3.84 12.373333-5.973334 18.346667-2.133333 4.693333-4.266667 9.813333-6.826666 14.506666l35.413333 36.693334-64 67.413333-35.84-36.693333-14.08 7.253333a170.666667 170.666667 0 0 1-18.773333 7.253333v52.053334h-90.453334v-51.2a136.533333 136.533333 0 0 1-18.346666-7.253334l-14.08-7.253333-35.84 36.693333-64.853334-64.853333 35.413334-36.693333c-2.56-4.693333-4.693333-9.813333-6.826667-14.506667a133.12 133.12 0 0 1-6.4-18.346667h-51.626667V283.733333h50.346667a189.44 189.44 0 0 1 14.506667-36.266666l-35.413334-36.693334 62.293334-64.426666 35.84 36.693333a157.013333 157.013333 0 0 1 34.986666-14.933333V116.053333h88.32v52.053334a148.906667 148.906667 0 0 1 34.986667 14.933333l35.84-36.693333 62.72 64.426666-35.84 36.693334a189.44 189.44 0 0 1 14.506667 36.266666z" p-id="16610"></path></svg>