<svg t="1622025229864" class="icon" viewBox="0 0 1024 1024" version="1.1" xmlns="http://www.w3.org/2000/svg" p-id="2003" width="200" height="200"><path d="M727.49 135.06c-100.5-16.5-171 28-217 76 0 0-106.4-122-255.95-63.5S96.5 368.64 96.5 384.85c0 16.21-14.91 121.21 158.05 302.54 150.18 150.18 207.45 206 255.28 206 29.67 0 46.42-17.83 46.42-17.83s148.55-120 210.4-186.75S926.5 512.69 926.5 384.85s-98.51-233.29-199.01-249.79zM716.32 500.3l-97 93.59a29.931 29.931 0 0 1-20.83 8.41c-7.71 0-15.42-2.95-21.27-8.84L416.25 431.59l-69.73 68.51c-11.82 11.61-30.81 11.45-42.42-0.37-11.61-11.82-11.45-30.81 0.37-42.43l91-89.41c11.77-11.56 30.66-11.45 42.3 0.24l161.16 162.05 75.74-73.07c11.92-11.5 30.92-11.16 42.42 0.76 11.5 11.93 11.16 30.93-0.77 42.43z" p-id="2004"></path></svg>