<svg t="1620297934948" class="icon" viewBox="0 0 1024 1024" version="1.1" xmlns="http://www.w3.org/2000/svg" p-id="11927" width="128" height="128"><path d="M95.5 845.3h833v50.4h-833z" p-id="11928"></path><path d="M283 576h218v278.3H283V576z m143.2-195.4V452h-65.6v-71.4h-71.4V315h71.4v-71.4h65.6V315h71.4v65.6h-71.4z m247.2 86.3H754v73h-80.6v-73z m0 124.1H754v73h-80.6v-73z m0 124H754v73h-80.6v-73z m0 0" p-id="11929"></path><path d="M620.5 847.3h-50.4V214c0-19.5-14.1-35.3-31.4-35.3h-295c-17.3 0-31.4 15.8-31.4 35.3v633.4h-50.4V214c0-47.3 36.7-85.7 81.8-85.7h295c45.1 0 81.8 38.4 81.8 85.7v633.3z m0 0" p-id="11930"></path><path d="M857.4 851.8H807V426c0-6.3-4.3-11.8-9.3-11.8H605.9v-50.4h191.8c32.9 0 59.7 27.9 59.7 62.2v425.8z m0 0" p-id="11931"></path></svg>